<svg width="172" height="69" viewBox="0 0 172 69" fill="none" xmlns="http://www.w3.org/2000/svg">
    <path fill-rule="evenodd" clip-rule="evenodd" d="M79.15 10.45H86.88C91.35 10.45 94.56 13.06 94.56 17.51C94.56 21.42 91.35 24.71 85.42 24.71H83.96V30.33H79.15V10.45ZM85.59 21.02C88.57 21.02 89.64 19.47 89.64 17.62C89.64 15.62 88.83 14.19 86.27 14.19H83.96V21.02H85.59V21.02Z" fill="#007853"/>
    <path fill-rule="evenodd" clip-rule="evenodd" d="M114.88 29.23L116.23 25.8C118 26.42 119.29 26.7 121.49 26.7C123.88 26.7 124.98 25.97 124.98 24.76C124.98 21.53 115.53 22.4 115.53 15.65C115.53 11.83 119.16 10.17 122.67 10.17C125.82 10.17 127.34 10.85 128.88 11.52L127.5 14.84C126.04 14.42 124.83 14.02 122.81 14.02C120.79 14.02 120.19 14.78 120.19 15.62C120.19 18.26 129.81 18.26 129.81 24.59C129.81 28.95 125.65 30.63 121.54 30.63C118.28 30.63 116.37 30.04 114.88 29.22" fill="#007853"/>
    <path fill-rule="evenodd" clip-rule="evenodd" d="M144.19 10.45H137.67L130.98 30.33H135.93L137.81 24.51H144.05L145.93 30.33H150.88L144.19 10.45V10.45ZM138.93 21.05L140.93 13.4L142.93 21.05H138.94H138.93Z" fill="#007853"/>
    <path fill-rule="evenodd" clip-rule="evenodd" d="M106.53 10.45H100.01L93.32 30.33H98.27L100.16 24.51H106.4L108.28 30.33H113.23L106.54 10.45H106.53ZM101.27 21.05L103.27 13.4L105.27 21.05H101.28H101.27Z" fill="#007853"/>
    <path fill-rule="evenodd" clip-rule="evenodd" d="M46.61 10.17H58.74V29.85H39.05V25.42L49.93 14.54L50.46 14.01L46.61 10.17Z" fill="#007853"/>
    <path fill-rule="evenodd" clip-rule="evenodd" d="M34.41 0L48.33 13.92L34.41 27.84L31.27 24.7V8.57H25.84L34.41 0Z" fill="#4BB3BE"/>
    <path fill-rule="evenodd" clip-rule="evenodd" d="M10.08 10.17V22.29L13.39 18.98L13.92 18.45L25.33 29.85H29.77V10.17H10.08Z" fill="#007853"/>
    <path fill-rule="evenodd" clip-rule="evenodd" d="M0 34.41L13.92 20.49L27.84 34.41L24.7 37.55H8.57V42.98L0 34.41Z" fill="#4BB3BE"/>
    <path fill-rule="evenodd" clip-rule="evenodd" d="M10.08 58.83V39.14H29.77V43.58L18.89 54.45L18.36 54.98L18.89 55.52L22.2 58.83H10.08Z" fill="#007853"/>
    <path fill-rule="evenodd" clip-rule="evenodd" d="M34.41 68.82L20.49 54.89L34.41 40.97L37.54 44.11V60.24H42.99L34.41 68.82Z" fill="#4BB3BE"/>
    <path fill-rule="evenodd" clip-rule="evenodd" d="M58.74 58.83H39.05V39.14H43.49L54.37 50.01L54.9 50.55L55.43 50.01L58.74 46.7V58.83Z" fill="#007853"/>
    <path fill-rule="evenodd" clip-rule="evenodd" d="M54.9 48.33L40.98 34.41L44.12 31.27H60.24V25.84L68.82 34.41L54.9 48.33Z" fill="#4BB3BE"/>
    <path d="M79.13 39.3H84.69L89.98 54.21L96.05 39.3H101.34V58.29H96.77V51.22L96.96 46.76H96.85L92.39 58.29H87.29L83.53 46.74H83.42L83.69 51.23V58.3H79.12V39.31L79.13 39.3Z" fill="#4BB3BE"/>
    <path d="M105.17 54.11C105.17 50.4 108.56 49.65 111.46 49.65H114.01V48.74C114.01 47.45 113.18 47.07 111.35 47.07C109.9 47.07 108.34 47.34 106.97 47.71L106.08 44.46C107.75 43.82 109.68 43.28 112.02 43.28C116.56 43.28 118.39 44.57 118.39 47.87V54.4C118.39 54.88 118.87 54.99 119.71 55.02L119.55 58.41C119.2 58.44 118.85 58.44 118.5 58.44C116.73 58.44 114.85 58.14 114.44 56.88C113.37 57.71 111.83 58.55 110.22 58.55C107 58.55 105.17 57.05 105.17 54.12V54.11ZM114.01 54.57V52.26L111.81 52.31C110.49 52.34 109.53 52.77 109.53 53.84C109.53 54.7 110.36 55.08 111.17 55.08C112.03 55.08 113.05 54.89 114.02 54.57H114.01Z" fill="#4BB3BE"/>
    <path d="M123.06 38.04H127.55V58.3H123.06V38.04V38.04Z" fill="#4BB3BE"/>
    <path d="M132.01 38.04H136.5V58.3H132.01V38.04V38.04Z" fill="#4BB3BE"/>
    <path d="M140.09 58L140.57 54.61C142.48 54.88 144.01 55.01 145 55.01C147.01 55.01 147.53 54.58 147.53 53.99C147.53 52.4 140.14 53.16 140.14 47.89C140.14 44.72 143.12 43.24 146.32 43.24C148.12 43.24 149.73 43.54 151.26 44.07L150.51 47.32C149.09 47 147.96 46.78 146.45 46.78C145.21 46.78 144.62 47.13 144.62 47.67C144.62 49.34 151.95 48.88 151.95 53.8C151.95 57.67 147.89 58.61 145.42 58.61C143.3 58.61 141.58 58.42 140.07 57.99L140.09 58Z" fill="#4BB3BE"/>
    <path d="M120.66 31.12H123.47C123.47 31.12 125.73 34.49 120.46 36.14L119.21 34C119.21 34 121.81 32.99 120.65 31.11L120.66 31.12Z" fill="#007853"/>
</svg>
